<svg width="173" height="60" viewBox="0 0 173 60" fill="none" xmlns="http://www.w3.org/2000/svg">
<path d="M141.992 44.5496V23.0978H150.424V29.5686L149.051 27.7254C149.705 26.0521 150.75 24.7972 152.188 23.9605C153.626 23.1239 155.352 22.7056 157.365 22.7056V30.5491C156.973 30.4968 156.62 30.4575 156.306 30.4314C156.018 30.4053 155.718 30.3922 155.404 30.3922C154.071 30.3922 152.973 30.7451 152.11 31.4511C151.273 32.1308 150.855 33.3204 150.855 35.0198V44.5496H141.992Z" fill="#0E0E0E"/>
<path d="M128.445 44.5496C125.831 44.5496 123.543 44.0659 121.582 43.0986C119.648 42.1312 118.145 40.8109 117.073 39.1376C116.001 37.4382 115.465 35.5296 115.465 33.4119C115.465 31.2419 115.988 29.3202 117.033 27.647C118.105 25.9737 119.556 24.6665 121.386 23.7252C123.243 22.784 125.321 22.3134 127.622 22.3134C129.739 22.3134 131.687 22.7317 133.465 23.5684C135.269 24.405 136.707 25.6469 137.779 27.294C138.877 28.9411 139.426 30.9804 139.426 33.4119C139.426 33.7257 139.413 34.0786 139.386 34.4708C139.36 34.8368 139.334 35.1767 139.308 35.4904H122.798V31.2157H134.602L131.269 32.353C131.269 31.5164 131.112 30.8105 130.798 30.2353C130.511 29.634 130.105 29.1764 129.582 28.8627C129.06 28.5228 128.432 28.3529 127.7 28.3529C126.968 28.3529 126.328 28.5228 125.779 28.8627C125.256 29.1764 124.85 29.634 124.563 30.2353C124.275 30.8105 124.131 31.5164 124.131 32.353V33.6864C124.131 34.6015 124.314 35.3859 124.68 36.0395C125.047 36.6931 125.569 37.1898 126.249 37.5297C126.929 37.8435 127.752 38.0003 128.72 38.0003C129.713 38.0003 130.524 37.8696 131.151 37.6082C131.805 37.3467 132.484 36.9545 133.19 36.4316L137.818 41.0985C136.772 42.2227 135.478 43.0855 133.935 43.6868C132.419 44.262 130.589 44.5496 128.445 44.5496Z" fill="#0E0E0E"/>
<path d="M107.051 22.3136C104.751 22.3136 102.672 22.7838 100.816 23.725C98.9861 24.6662 97.535 25.9733 96.4631 27.6466C95.4173 29.3199 94.8945 31.242 94.8945 33.412C94.8945 35.5298 95.4303 37.4382 96.5022 39.1376C97.5741 40.8109 99.077 42.1309 101.012 43.0983C102.972 44.0656 105.26 44.5496 107.875 44.5496C110.019 44.5496 111.848 44.2615 113.365 43.6863C114.404 43.2813 115.327 42.7551 116.14 42.1129C114.43 40.6004 113.177 38.6728 112.573 36.4639C111.884 36.9696 111.22 37.3524 110.581 37.6081C109.954 37.8695 109.143 37.9998 108.149 37.9998C107.182 37.9998 106.359 37.8436 105.679 37.5299C104.999 37.19 104.476 36.6931 104.11 36.0395C104.012 35.8659 103.929 35.6825 103.858 35.4905H112.355C112.235 34.8249 112.17 34.1386 112.17 33.432C112.17 30.3186 113.359 27.4258 115.442 25.2346C114.693 24.5674 113.846 24.0094 112.894 23.5678C111.116 22.7312 109.169 22.3136 107.051 22.3136ZM107.13 28.3527C107.862 28.3527 108.489 28.5227 109.012 28.8625C109.535 29.1763 109.94 29.6336 110.228 30.2349C110.387 30.5278 110.507 30.8548 110.585 31.2155H103.665C103.737 30.855 103.846 30.5277 103.992 30.2349C104.28 29.6336 104.685 29.1763 105.208 28.8625C105.757 28.5227 106.397 28.3527 107.13 28.3527Z" fill="#0E0E0E"/>
<path d="M77.9068 44.5496L69.2793 23.0978H78.3774L84.9264 40.5103H80.3382L87.3186 23.0978H95.7108L87.0833 44.5496H77.9068Z" fill="#0E0E0E"/>
<path d="M65.1086 20.9212C63.6498 20.9212 62.4851 20.533 61.6145 19.7565C60.7439 18.9799 60.3086 18.0152 60.3086 16.8622C60.3086 15.7092 60.7439 14.7445 61.6145 13.968C62.4851 13.1915 63.6498 12.8032 65.1086 12.8032C66.5674 12.8032 67.7322 13.1679 68.6027 13.8974C69.4733 14.6268 69.9086 15.568 69.9086 16.721C69.9086 17.9446 69.4733 18.9564 68.6027 19.7565C67.7322 20.533 66.5674 20.9212 65.1086 20.9212Z" fill="#0E0E0E"/>
<path d="M60.6777 44.5496V23.0978H69.5405V44.5496H60.6777Z" fill="#0E0E0E"/>
<path d="M48.7109 44.5496V15.4504H57.5737V44.5496H48.7109Z" fill="#0E0E0E"/>
<path d="M30.9395 44.5496C28.7172 44.5496 26.6519 44.1967 24.7434 43.4908C22.861 42.7849 21.227 41.7913 19.8414 40.5102C18.4558 39.203 17.3708 37.6735 16.5865 35.9218C15.8283 34.1701 15.4492 32.2615 15.4492 30.1961C15.4492 28.1045 15.8283 26.1959 16.5865 24.4704C17.3708 22.7187 18.4558 21.2023 19.8414 19.9212C21.227 18.6139 22.861 17.6073 24.7434 16.9014C26.6519 16.1955 28.7172 15.8426 30.9395 15.8426C33.1878 15.8426 35.2532 16.1955 37.1356 16.9014C39.0179 17.6073 40.6519 18.6139 42.0376 19.9212C43.4232 21.2023 44.4951 22.7187 45.2533 24.4704C46.0376 26.1959 46.4297 28.1045 46.4297 30.1961C46.4297 32.2615 46.0376 34.1701 45.2533 35.9218C44.4951 37.6735 43.4232 39.203 42.0376 40.5102C40.6519 41.7913 39.0179 42.7849 37.1356 43.4908C35.2532 44.1967 33.1878 44.5496 30.9395 44.5496ZM30.9395 37.0591C31.8022 37.0591 32.5996 36.9023 33.3316 36.5885C34.0898 36.2748 34.7434 35.8303 35.2924 35.2551C35.8676 34.6538 36.312 33.9348 36.6258 33.0982C36.9395 32.2354 37.0964 31.268 37.0964 30.1961C37.0964 29.1242 36.9395 28.1699 36.6258 27.3332C36.312 26.4704 35.8676 25.7515 35.2924 25.1763C34.7434 24.5749 34.0898 24.1174 33.3316 23.8037C32.5996 23.4899 31.8022 23.3331 30.9395 23.3331C30.0767 23.3331 29.2663 23.4899 28.5081 23.8037C27.7761 24.1174 27.1225 24.5749 26.5473 25.1763C25.9983 25.7515 25.5669 26.4704 25.2532 27.3332C24.9395 28.1699 24.7826 29.1242 24.7826 30.1961C24.7826 31.268 24.9395 32.2354 25.2532 33.0982C25.5669 33.9348 25.9983 34.6538 26.5473 35.2551C27.1225 35.8303 27.7761 36.2748 28.5081 36.5885C29.2663 36.9023 30.0767 37.0591 30.9395 37.0591Z" fill="#0E0E0E"/>
</svg>
